<mxfile host="app.diagrams.net" agent="Mozilla/5.0 (Windows NT 10.0; Win64; x64) AppleWebKit/537.36 (KHTML, like Gecko) Chrome/138.0.0.0 Safari/537.36" version="28.0.3">
  <diagram name="第 1 页" id="il_lqWEc3CzIjs0lfdd5">
    <mxGraphModel dx="983" dy="512" grid="1" gridSize="10" guides="1" tooltips="1" connect="1" arrows="1" fold="1" page="1" pageScale="1" pageWidth="827" pageHeight="1169" math="0" shadow="0">
      <root>
        <mxCell id="0" />
        <mxCell id="1" parent="0" />
        <mxCell id="l65DF04jQs9VHbQhhQG7-15" value="" style="rounded=0;whiteSpace=wrap;html=1;sketch=1;hachureGap=4;jiggle=2;curveFitting=1;strokeColor=#36393d;fontFamily=Architects Daughter;fontSource=https%3A%2F%2Ffonts.googleapis.com%2Fcss%3Ffamily%3DArchitects%2BDaughter;fillColor=#eeeeee;" vertex="1" parent="1">
          <mxGeometry x="80" y="220" width="680" height="380" as="geometry" />
        </mxCell>
        <mxCell id="l65DF04jQs9VHbQhhQG7-1" value="Internet User&lt;div&gt;(abitacc.com&lt;span style=&quot;background-color: transparent; color: light-dark(rgb(0, 0, 0), rgb(255, 255, 255));&quot;&gt;)&lt;/span&gt;&lt;/div&gt;" style="text;html=1;align=center;verticalAlign=middle;whiteSpace=wrap;rounded=0;sketch=1;curveFitting=1;jiggle=2;labelBackgroundColor=none;fontColor=#393C56;" vertex="1" parent="1">
          <mxGeometry x="100" y="130" width="100" height="30" as="geometry" />
        </mxCell>
        <mxCell id="l65DF04jQs9VHbQhhQG7-2" value="" style="shape=actor;whiteSpace=wrap;html=1;sketch=1;curveFitting=1;jiggle=2;labelBackgroundColor=none;fillColor=#F2CC8F;strokeColor=#E07A5F;fontColor=#393C56;" vertex="1" parent="1">
          <mxGeometry x="140" y="90" width="20" height="30" as="geometry" />
        </mxCell>
        <mxCell id="l65DF04jQs9VHbQhhQG7-3" value="" style="endArrow=classic;html=1;rounded=0;dashed=1;entryX=0;entryY=0.5;entryDx=0;entryDy=0;sketch=1;curveFitting=1;jiggle=2;labelBackgroundColor=none;strokeColor=#E07A5F;fontColor=default;" edge="1" parent="1" target="l65DF04jQs9VHbQhhQG7-7">
          <mxGeometry relative="1" as="geometry">
            <mxPoint x="200" y="130" as="sourcePoint" />
            <mxPoint x="400" y="130" as="targetPoint" />
          </mxGeometry>
        </mxCell>
        <mxCell id="l65DF04jQs9VHbQhhQG7-4" value="HTTP/S" style="edgeLabel;resizable=0;html=1;;align=center;verticalAlign=middle;sketch=1;curveFitting=1;jiggle=2;labelBackgroundColor=none;fontColor=#393C56;" connectable="0" vertex="1" parent="l65DF04jQs9VHbQhhQG7-3">
          <mxGeometry relative="1" as="geometry" />
        </mxCell>
        <mxCell id="l65DF04jQs9VHbQhhQG7-7" value="&lt;span style=&quot;font-family: Helvetica;&quot;&gt;ECS云服务器&lt;/span&gt;&lt;div style=&quot;font-family: Helvetica;&quot;&gt;（Public IP）&lt;br&gt;&lt;/div&gt;&lt;div style=&quot;font-family: Helvetica;&quot;&gt;frps&lt;/div&gt;" style="rounded=1;whiteSpace=wrap;html=1;sketch=1;hachureGap=4;jiggle=2;curveFitting=1;fontFamily=Architects Daughter;fontSource=https%3A%2F%2Ffonts.googleapis.com%2Fcss%3Ffamily%3DArchitects%2BDaughter;labelBackgroundColor=none;fillColor=#F2CC8F;strokeColor=#E07A5F;fontColor=#393C56;" vertex="1" parent="1">
          <mxGeometry x="360" y="100" width="120" height="60" as="geometry" />
        </mxCell>
        <mxCell id="l65DF04jQs9VHbQhhQG7-8" value="&lt;span style=&quot;font-family: Helvetica;&quot;&gt;frpc Client&lt;/span&gt;" style="rounded=1;whiteSpace=wrap;html=1;sketch=1;hachureGap=4;jiggle=2;curveFitting=1;fontFamily=Architects Daughter;fontSource=https%3A%2F%2Ffonts.googleapis.com%2Fcss%3Ffamily%3DArchitects%2BDaughter;labelBackgroundColor=none;fillColor=#ffcccc;strokeColor=#36393d;" vertex="1" parent="1">
          <mxGeometry x="360" y="260" width="120" height="60" as="geometry" />
        </mxCell>
        <mxCell id="l65DF04jQs9VHbQhhQG7-9" value="&lt;span style=&quot;font-family: Helvetica;&quot;&gt;Caddy server&lt;/span&gt;" style="rounded=1;whiteSpace=wrap;html=1;sketch=1;hachureGap=4;jiggle=2;curveFitting=1;fontFamily=Architects Daughter;fontSource=https%3A%2F%2Ffonts.googleapis.com%2Fcss%3Ffamily%3DArchitects%2BDaughter;labelBackgroundColor=none;fillColor=#d5e8d4;strokeColor=#82b366;" vertex="1" parent="1">
          <mxGeometry x="360" y="370" width="120" height="60" as="geometry" />
        </mxCell>
        <mxCell id="l65DF04jQs9VHbQhhQG7-11" value="Server A&lt;div&gt;(e.g. Docker)&lt;/div&gt;" style="rounded=1;whiteSpace=wrap;html=1;sketch=1;hachureGap=4;jiggle=2;curveFitting=1;strokeColor=#0e8088;fontFamily=Architects Daughter;fontSource=https%3A%2F%2Ffonts.googleapis.com%2Fcss%3Ffamily%3DArchitects%2BDaughter;fillColor=#b0e3e6;" vertex="1" parent="1">
          <mxGeometry x="160" y="499" width="120" height="60" as="geometry" />
        </mxCell>
        <mxCell id="l65DF04jQs9VHbQhhQG7-12" value="Server B&lt;div&gt;(e.g. Docker)&lt;/div&gt;" style="rounded=1;whiteSpace=wrap;html=1;sketch=1;hachureGap=4;jiggle=2;curveFitting=1;strokeColor=#0e8088;fontFamily=Architects Daughter;fontSource=https%3A%2F%2Ffonts.googleapis.com%2Fcss%3Ffamily%3DArchitects%2BDaughter;fillColor=#b0e3e6;" vertex="1" parent="1">
          <mxGeometry x="360" y="499" width="120" height="60" as="geometry" />
        </mxCell>
        <mxCell id="l65DF04jQs9VHbQhhQG7-13" value="Server C&lt;div&gt;(e.g. Docker)&lt;/div&gt;" style="rounded=1;whiteSpace=wrap;html=1;sketch=1;hachureGap=4;jiggle=2;curveFitting=1;strokeColor=#0e8088;fontFamily=Architects Daughter;fontSource=https%3A%2F%2Ffonts.googleapis.com%2Fcss%3Ffamily%3DArchitects%2BDaughter;fillColor=#b0e3e6;" vertex="1" parent="1">
          <mxGeometry x="560" y="499" width="120" height="60" as="geometry" />
        </mxCell>
        <mxCell id="l65DF04jQs9VHbQhhQG7-16" value="" style="endArrow=classic;html=1;rounded=0;sketch=1;hachureGap=4;jiggle=2;curveFitting=1;strokeColor=#E07A5F;fontFamily=Architects Daughter;fontSource=https%3A%2F%2Ffonts.googleapis.com%2Fcss%3Ffamily%3DArchitects%2BDaughter;fontColor=#393C56;fillColor=#F2CC8F;exitX=0.5;exitY=1;exitDx=0;exitDy=0;entryX=0.5;entryY=0;entryDx=0;entryDy=0;dashed=1;" edge="1" parent="1" source="l65DF04jQs9VHbQhhQG7-9" target="l65DF04jQs9VHbQhhQG7-12">
          <mxGeometry width="50" height="50" relative="1" as="geometry">
            <mxPoint x="470" y="510" as="sourcePoint" />
            <mxPoint x="520" y="460" as="targetPoint" />
          </mxGeometry>
        </mxCell>
        <mxCell id="l65DF04jQs9VHbQhhQG7-17" value="" style="endArrow=classic;html=1;rounded=0;sketch=1;hachureGap=4;jiggle=2;curveFitting=1;strokeColor=#E07A5F;fontFamily=Architects Daughter;fontSource=https%3A%2F%2Ffonts.googleapis.com%2Fcss%3Ffamily%3DArchitects%2BDaughter;fontColor=#393C56;fillColor=#F2CC8F;entryX=0.5;entryY=0;entryDx=0;entryDy=0;dashed=1;" edge="1" parent="1" target="l65DF04jQs9VHbQhhQG7-13">
          <mxGeometry width="50" height="50" relative="1" as="geometry">
            <mxPoint x="420" y="430" as="sourcePoint" />
            <mxPoint x="520" y="460" as="targetPoint" />
            <Array as="points">
              <mxPoint x="420" y="460" />
              <mxPoint x="620" y="460" />
            </Array>
          </mxGeometry>
        </mxCell>
        <mxCell id="l65DF04jQs9VHbQhhQG7-18" value="" style="endArrow=classic;html=1;rounded=0;sketch=1;hachureGap=4;jiggle=2;curveFitting=1;strokeColor=#E07A5F;fontFamily=Architects Daughter;fontSource=https%3A%2F%2Ffonts.googleapis.com%2Fcss%3Ffamily%3DArchitects%2BDaughter;fontColor=#393C56;fillColor=#F2CC8F;entryX=0.464;entryY=0.012;entryDx=0;entryDy=0;entryPerimeter=0;dashed=1;" edge="1" parent="1" target="l65DF04jQs9VHbQhhQG7-11">
          <mxGeometry width="50" height="50" relative="1" as="geometry">
            <mxPoint x="420" y="430" as="sourcePoint" />
            <mxPoint x="300" y="440" as="targetPoint" />
            <Array as="points">
              <mxPoint x="420" y="460" />
              <mxPoint x="216" y="460" />
            </Array>
          </mxGeometry>
        </mxCell>
        <mxCell id="l65DF04jQs9VHbQhhQG7-19" value="" style="endArrow=classic;html=1;rounded=0;sketch=1;hachureGap=4;jiggle=2;curveFitting=1;strokeColor=#E07A5F;fontFamily=Architects Daughter;fontSource=https%3A%2F%2Ffonts.googleapis.com%2Fcss%3Ffamily%3DArchitects%2BDaughter;fontColor=#393C56;fillColor=#F2CC8F;exitX=0.5;exitY=1;exitDx=0;exitDy=0;entryX=0.5;entryY=0;entryDx=0;entryDy=0;dashed=1;" edge="1" parent="1" source="l65DF04jQs9VHbQhhQG7-8" target="l65DF04jQs9VHbQhhQG7-9">
          <mxGeometry width="50" height="50" relative="1" as="geometry">
            <mxPoint x="530" y="370" as="sourcePoint" />
            <mxPoint x="580" y="320" as="targetPoint" />
          </mxGeometry>
        </mxCell>
        <mxCell id="l65DF04jQs9VHbQhhQG7-20" value="" style="endArrow=none;dashed=1;html=1;strokeWidth=2;rounded=0;sketch=1;hachureGap=4;jiggle=2;curveFitting=1;strokeColor=#E07A5F;fontFamily=Architects Daughter;fontSource=https%3A%2F%2Ffonts.googleapis.com%2Fcss%3Ffamily%3DArchitects%2BDaughter;fontColor=#393C56;fillColor=#F2CC8F;entryX=0.5;entryY=1;entryDx=0;entryDy=0;exitX=0.5;exitY=0;exitDx=0;exitDy=0;" edge="1" parent="1" source="l65DF04jQs9VHbQhhQG7-8" target="l65DF04jQs9VHbQhhQG7-7">
          <mxGeometry width="50" height="50" relative="1" as="geometry">
            <mxPoint x="420" y="220" as="sourcePoint" />
            <mxPoint x="470" y="170" as="targetPoint" />
          </mxGeometry>
        </mxCell>
        <mxCell id="l65DF04jQs9VHbQhhQG7-22" value="" style="edgeStyle=orthogonalEdgeStyle;rounded=0;sketch=1;hachureGap=4;jiggle=2;curveFitting=1;orthogonalLoop=1;jettySize=auto;html=1;strokeColor=#E07A5F;fontFamily=Architects Daughter;fontSource=https%3A%2F%2Ffonts.googleapis.com%2Fcss%3Ffamily%3DArchitects%2BDaughter;fontColor=#393C56;fillColor=#F2CC8F;" edge="1" parent="1" source="l65DF04jQs9VHbQhhQG7-21" target="l65DF04jQs9VHbQhhQG7-7">
          <mxGeometry relative="1" as="geometry" />
        </mxCell>
        <mxCell id="l65DF04jQs9VHbQhhQG7-21" value="FRP&amp;nbsp;tunnel" style="text;html=1;align=center;verticalAlign=middle;whiteSpace=wrap;rounded=0;fontFamily=Architects Daughter;fontSource=https%3A%2F%2Ffonts.googleapis.com%2Fcss%3Ffamily%3DArchitects%2BDaughter;fontColor=#393C56;" vertex="1" parent="1">
          <mxGeometry x="440" y="180" width="60" height="30" as="geometry" />
        </mxCell>
        <mxCell id="l65DF04jQs9VHbQhhQG7-23" value="内网设备（NAT/Firewall）" style="text;html=1;align=center;verticalAlign=middle;whiteSpace=wrap;rounded=0;fontFamily=Architects Daughter;fontSource=https%3A%2F%2Ffonts.googleapis.com%2Fcss%3Ffamily%3DArchitects%2BDaughter;fontColor=#393C56;" vertex="1" parent="1">
          <mxGeometry x="90" y="230" width="170" height="30" as="geometry" />
        </mxCell>
      </root>
    </mxGraphModel>
  </diagram>
</mxfile>
